<svg xmlns="http://www.w3.org/2000/svg" xmlns:xlink="http://www.w3.org/1999/xlink" width="1587" zoomAndPan="magnify" viewBox="0 0 1190.25 1683.749949" height="2245" preserveAspectRatio="xMidYMid meet" version="1.0"><defs><clipPath id="7bbee5ff12"><path d="M 79.695312 257 L 1110.292969 257 L 1110.292969 1427 L 79.695312 1427 Z M 79.695312 257 " clip-rule="nonzero"/></clipPath></defs><g clip-path="url(#7bbee5ff12)"><path fill="#e44d26" d="M 173.25 1309.75 L 79.402344 257.164062 L 1110.585938 257.164062 L 1016.664062 1309.601562 L 594.335938 1426.625 Z M 173.25 1309.75 " fill-opacity="1" fill-rule="nonzero"/></g><path fill="#f16529" d="M 936.226562 1242.574219 L 1016.515625 343.234375 L 594.992188 343.234375 L 594.992188 1337.195312 Z M 936.226562 1242.574219 " fill-opacity="1" fill-rule="nonzero"/><path fill="#ebebeb" d="M 594.554688 472.316406 L 271.269531 472.316406 L 306.097656 862.707031 L 594.992188 862.707031 L 594.992188 733.625 L 424.175781 733.625 L 412.371094 601.4375 L 594.992188 601.4375 L 594.992188 472.316406 Z M 594.992188 1068.46875 L 594.445312 1068.613281 L 450.671875 1029.800781 L 441.535156 926.847656 L 311.871094 926.847656 L 329.960938 1129.535156 L 594.410156 1202.628906 L 594.992188 1202.449219 Z M 594.992188 1068.46875 " fill-opacity="1" fill-rule="nonzero"/><path fill="#ffffff" d="M 594.554688 862.707031 L 753.53125 862.707031 L 738.914062 1030.09375 L 594.921875 1068.941406 L 594.921875 1203.25 L 859.585938 1129.902344 L 895.039062 733.550781 L 594.992188 733.550781 Z M 914.84375 506.960938 L 917.914062 472.316406 L 594.480469 472.316406 L 594.480469 601.398438 L 906.292969 601.398438 L 908.851562 572.382812 Z M 914.84375 506.960938 " fill-opacity="1" fill-rule="nonzero"/></svg>