<svg xmlns="http://www.w3.org/2000/svg" xmlns:xlink="http://www.w3.org/1999/xlink" width="1587" zoomAndPan="magnify" viewBox="0 0 1190.25 1683.749949" height="2245" preserveAspectRatio="xMidYMid meet" version="1.0"><defs><clipPath id="cd0059e901"><path d="M 270.34375 473.992188 L 919.433594 473.992188 L 919.433594 1209.28125 L 270.34375 1209.28125 Z M 270.34375 473.992188 " clip-rule="nonzero"/></clipPath></defs><g clip-path="url(#cd0059e901)"><path fill="#020202" d="M 541.730469 473.992188 C 462.1875 473.992188 397.289062 538.726562 397.289062 618.4375 L 397.289062 688.660156 L 445.378906 640.734375 L 445.378906 618.4375 C 445.378906 565.351562 488.644531 522.085938 541.730469 522.085938 L 871.058594 522.085938 C 868.894531 591.644531 811.648438 647.558594 741.589844 647.558594 L 566.027344 647.558594 C 486.980469 647.558594 420.585938 702.140625 402.28125 775.527344 C 328.0625 784.847656 270.484375 848.414062 270.484375 925.128906 L 270.484375 1209.527344 L 294.445312 1209.527344 C 334.71875 1209.527344 372.660156 1193.882812 401.113281 1165.425781 C 429.570312 1136.96875 445.378906 1099.027344 445.378906 1058.757812 L 445.378906 822.457031 L 735.433594 822.457031 C 724.117188 882.363281 671.363281 927.792969 608.296875 927.792969 L 486.816406 927.792969 L 486.816406 975.886719 L 608.296875 975.886719 C 706.144531 975.886719 785.855469 896.175781 785.855469 798.324219 L 785.855469 774.363281 L 453.035156 774.363281 C 470.175781 728.433594 514.441406 695.652344 566.195312 695.652344 L 741.757812 695.652344 C 839.605469 695.652344 919.316406 615.941406 919.316406 518.089844 L 919.316406 473.992188 Z M 397.289062 1058.589844 C 397.289062 1086.050781 386.636719 1111.84375 367.167969 1131.3125 C 353.519531 1144.957031 336.878906 1154.277344 318.574219 1158.605469 L 318.574219 925.128906 C 318.574219 876.707031 352.191406 836.101562 397.289062 825.285156 Z M 397.289062 1058.589844 " fill-opacity="1" fill-rule="nonzero"/></g></svg>